<svg width="551" height="211" viewBox="0 0 551 211" fill="none" xmlns="http://www.w3.org/2000/svg">
<path d="M483.713 205.55V167.328H383.77V133.07L475.503 4.53003H526.749V131.088H550.248V167.328H526.749V205.55H483.713ZM429.353 131.088H483.713V57.4747L429.353 131.088Z" fill="white"/>
<path d="M278.102 210.08C260.359 210.08 245.07 205.927 232.235 197.622C219.4 189.129 209.491 177.049 202.507 161.382C195.712 145.716 192.314 127.029 192.314 105.323C192.314 83.6167 195.806 64.9304 202.79 49.264C209.774 33.4089 219.589 21.2345 232.235 12.7407C245.07 4.2469 260.359 0 278.102 0C295.656 0 310.756 4.2469 323.402 12.7407C336.237 21.2345 346.147 33.4089 353.13 49.264C360.114 64.9304 363.606 83.6167 363.606 105.323C363.606 126.841 360.114 145.433 353.13 161.099C346.335 176.765 336.52 188.845 323.685 197.339C310.85 205.833 295.656 210.08 278.102 210.08ZM278.102 173.84C291.314 173.84 301.413 168.083 308.396 156.569C315.569 145.055 319.155 127.973 319.155 105.323C319.155 90.0343 317.551 77.2936 314.342 67.101C311.322 56.9085 306.698 49.264 300.469 44.1678C294.429 38.8827 286.973 36.2402 278.102 36.2402C269.042 36.2402 261.397 38.8827 255.169 44.1678C249.129 49.264 244.504 56.9085 241.295 67.101C238.275 77.2936 236.765 90.0343 236.765 105.323C236.765 127.973 240.257 145.055 247.241 156.569C254.414 168.083 264.701 173.84 278.102 173.84Z" fill="white"/>
<path d="M99.9437 205.55V167.328H0V133.07L91.733 4.53003H142.979V131.088H166.479V167.328H142.979V205.55H99.9437ZM45.5834 131.088H99.9437V57.4747L45.5834 131.088Z" fill="white"/>
</svg>
