<svg width="1441" height="837" viewBox="0 0 1441 837" fill="none" xmlns="http://www.w3.org/2000/svg">
<path d="M360.379 -25C432.406 -25 494.365 -7.57431 546.256 27.2773C598.921 62.1292 639.582 112.084 668.238 177.141C696.894 241.423 711.222 318.098 711.222 407.164C711.222 495.455 696.894 571.742 668.238 636.024C640.357 700.307 600.083 749.875 547.418 784.727C494.753 819.578 432.406 837.004 360.379 837.004C287.577 837.004 224.844 819.965 172.179 785.888C119.514 751.036 78.8532 701.469 50.1973 637.187C22.3158 572.904 8.37506 496.23 8.375 407.164C8.375 318.098 22.7034 241.423 51.3594 177.141C80.0154 112.084 120.288 62.1292 172.179 27.2773C224.844 -7.57446 287.577 -24.9999 360.379 -25ZM-194.059 512.881H-97.6348V661.582H-194.059V818.416H-370.642V661.582H-780.732V521.013L-404.332 -6.41211H-194.059V512.881ZM1380.63 512.881H1477.05V661.582H1380.63V818.416H1204.05V661.582H793.957V521.013L1170.36 -6.41211H1380.63V512.881ZM360.379 123.701C323.204 123.701 291.837 134.544 266.279 156.229C241.496 177.141 222.521 208.508 209.354 250.33C196.963 292.152 190.767 344.431 190.767 407.164C190.767 500.102 205.095 570.193 233.751 617.437C263.181 664.68 305.391 688.303 360.379 688.303C414.593 688.303 456.029 664.68 484.685 617.437C514.115 570.193 528.83 500.102 528.83 407.164C528.83 344.431 522.247 292.152 509.081 250.33C496.689 208.508 477.714 177.141 452.156 156.229C427.373 134.544 396.78 123.701 360.379 123.701ZM-593.693 512.881H-370.642V210.831L-593.693 512.881ZM980.995 512.881H1204.05V210.831L980.995 512.881Z" fill="url(#paint0_radial_1242_667)"/>
<path d="M360.379 -25C432.406 -25 494.365 -7.57431 546.256 27.2773C598.921 62.1292 639.582 112.084 668.238 177.141C696.894 241.423 711.222 318.098 711.222 407.164C711.222 495.455 696.894 571.742 668.238 636.024C640.357 700.307 600.083 749.875 547.418 784.727C494.753 819.578 432.406 837.004 360.379 837.004C287.577 837.004 224.844 819.965 172.179 785.888C119.514 751.036 78.8532 701.469 50.1973 637.187C22.3158 572.904 8.37506 496.23 8.375 407.164C8.375 318.098 22.7034 241.423 51.3594 177.141C80.0154 112.084 120.288 62.1292 172.179 27.2773C224.844 -7.57446 287.577 -24.9999 360.379 -25ZM-194.059 512.881H-97.6348V661.582H-194.059V818.416H-370.642V661.582H-780.732V521.013L-404.332 -6.41211H-194.059V512.881ZM1380.63 512.881H1477.05V661.582H1380.63V818.416H1204.05V661.582H793.957V521.013L1170.36 -6.41211H1380.63V512.881ZM360.379 123.701C323.204 123.701 291.837 134.544 266.279 156.229C241.496 177.141 222.521 208.508 209.354 250.33C196.963 292.152 190.767 344.431 190.767 407.164C190.767 500.102 205.095 570.193 233.751 617.437C263.181 664.68 305.391 688.303 360.379 688.303C414.593 688.303 456.029 664.68 484.685 617.437C514.115 570.193 528.83 500.102 528.83 407.164C528.83 344.431 522.247 292.152 509.081 250.33C496.689 208.508 477.714 177.141 452.156 156.229C427.373 134.544 396.78 123.701 360.379 123.701ZM-593.693 512.881H-370.642V210.831L-593.693 512.881ZM980.995 512.881H1204.05V210.831L980.995 512.881Z" fill="black" fill-opacity="0.2"/>
<defs>
<radialGradient id="paint0_radial_1242_667" cx="0" cy="0" r="1" gradientUnits="userSpaceOnUse" gradientTransform="translate(-439.184 406.002) rotate(90) scale(225.82 187.017)">
<stop stop-color="white"/>
<stop offset="1" stop-opacity="0"/>
</radialGradient>
</defs>
</svg>
