<svg width="93" height="93" viewBox="0 0 93 93" fill="none" xmlns="http://www.w3.org/2000/svg">
<path d="M89.3018 1.19922V0.699219V1.19922ZM91.8018 3.69922H92.3018V3.69908L91.8018 3.69922ZM91.8018 90.7373V91.2373C92.0779 91.2373 92.3018 91.0135 92.3018 90.7373H91.8018ZM86.8018 90.7373H86.3018C86.3018 91.0135 86.5256 91.2373 86.8018 91.2373V90.7373ZM86.8018 9.73535H87.3018C87.3018 9.53312 87.1799 9.3508 86.9931 9.27341C86.8063 9.19602 86.5912 9.2388 86.4482 9.3818L86.8018 9.73535ZM4.03223 92.5049L3.67877 92.8585C3.87405 93.0537 4.19056 93.0537 4.38578 92.8584L4.03223 92.5049ZM2.26367 90.7373L1.91012 91.0909L1.91022 91.091L2.26367 90.7373ZM0.496094 88.9697L0.14254 88.6162C-0.0527218 88.8114 -0.0527218 89.128 0.14254 89.3233L0.496094 88.9697ZM83.2666 6.19922L83.6202 6.55277C83.7632 6.40977 83.8059 6.19471 83.7285 6.00788C83.6512 5.82104 83.4688 5.69922 83.2666 5.69922V6.19922ZM2.26367 6.19922H1.76367C1.76367 6.47536 1.98753 6.69922 2.26367 6.69922V6.19922ZM2.26367 1.19922V0.699219C1.98753 0.699219 1.76367 0.923076 1.76367 1.19922H2.26367ZM89.3018 1.19922V1.69922C90.406 1.69922 91.3015 2.59486 91.3018 3.69935L91.8018 3.69922L92.3018 3.69908C92.3013 2.04279 90.9585 0.699219 89.3018 0.699219V1.19922ZM91.8018 3.69922H91.3018V90.7373H91.8018H92.3018V3.69922H91.8018ZM91.8018 90.7373V90.2373H86.8018V90.7373V91.2373H91.8018V90.7373ZM86.8018 90.7373H87.3018V9.73535H86.8018H86.3018V90.7373H86.8018ZM86.8018 9.73535L86.4482 9.3818L3.67867 92.1513L4.03223 92.5049L4.38578 92.8584L87.1553 10.0889L86.8018 9.73535ZM4.03223 92.5049L4.38568 92.1512L2.61713 90.3837L2.26367 90.7373L1.91022 91.091L3.67877 92.8585L4.03223 92.5049ZM2.26367 90.7373L2.61723 90.3838L0.849647 88.6162L0.496094 88.9697L0.14254 89.3233L1.91012 91.0909L2.26367 90.7373ZM0.496094 88.9697L0.849647 89.3233L83.6202 6.55277L83.2666 6.19922L82.913 5.84567L0.14254 88.6162L0.496094 88.9697ZM83.2666 6.19922V5.69922H2.26367V6.19922V6.69922H83.2666V6.19922ZM2.26367 6.19922H2.76367V1.19922H2.26367H1.76367V6.19922H2.26367ZM2.26367 1.19922V1.69922H89.3018V1.19922V0.699219H2.26367V1.19922Z" fill="#F79E62"/>
</svg>
