<svg width="740" height="531" viewBox="0 0 740 531" fill="none" xmlns="http://www.w3.org/2000/svg">
<path d="M461.178 0.00195312V69.1445L621.738 161.845L733.5 97.3203L739.5 107.713L626.479 172.965V358.956L738 423.344L732 433.735L620.034 369.092L459 462.065V531.002H447V462.54L285.287 369.175L233.595 399.021L6 530.422L0 520.029L227.595 388.629L278.699 359.123V171.105L0.5 10.4863L3.5 5.29004L6.5 0.0947266L285.049 160.915L444.178 69.042V0.00195312H461.178ZM290.699 171.509V358.443L452.589 451.91L614.479 358.443V171.509L452.589 78.043L290.699 171.509Z" fill="url(#paint0_radial_1388_1491)"/>
<defs>
<radialGradient id="paint0_radial_1388_1491" cx="0" cy="0" r="1" gradientUnits="userSpaceOnUse" gradientTransform="translate(457 320) rotate(-90) scale(515.5 2672.86)">
<stop stop-color="#F79E62"/>
<stop offset="1"/>
</radialGradient>
</defs>
</svg>
